<?xml version="1.0" encoding="UTF-8"?>
<svg id="Layer_1" xmlns="http://www.w3.org/2000/svg" xmlns:xlink="http://www.w3.org/1999/xlink" version="1.1" viewBox="0 0 1280 476">
  <!-- Generator: Adobe Illustrator 29.3.1, SVG Export Plug-In . SVG Version: 2.1.0 Build 151)  -->
  <defs>
    <style>
      .st0 {
        fill: #1e4791;
      }

      .st1, .st2 {
        fill: #f48120;
      }

      .st2 {
        fill-rule: evenodd;
      }
    </style>
  </defs>
  <polygon class="st2" points="200 7.5 252 154 397 153.7 274.9 243.9 321.7 390.2 3.1 153.7 147.8 154 200 7.5"/>
  <polygon class="st0" points="78.5 348.1 175.9 348.1 187 312.7 111.2 256.5 78.5 348.1"/>
  <polygon class="st0" points="306.9 7.5 219 7.5 264.5 135.8 352.4 135.6 306.9 7.5"/>
  <polygon class="st0" points="295.9 250.9 327 348.1 428 348.1 373.1 193.8 295.9 250.9"/>
  <polygon class="st0" points="1105.1 272.8 1105.1 212.7 1247.1 212.7 1247.1 137.3 1105.1 137.3 1105.1 82.9 1256.4 82.9 1256.4 7.5 1017.8 7.5 1017.8 348.1 1258.8 348.1 1266.2 272.8 1105.1 272.8"/>
  <polygon class="st0" points="840.8 7.5 751.1 7.5 751.1 348.1 980.4 348.1 988.4 270.4 840.8 270.4 840.8 7.5"/>
  <path class="st0" d="M679.1,167.3c15.3-8.3,25.9-18.5,32-30.5,6-12.1,9.1-25.8,9.1-41s-1.9-23.4-5.6-34.1c-3.7-10.7-10.2-20.1-19.4-28.1-9.2-8.1-21.5-14.5-36.9-19.1s-34.8-6.9-58.2-6.9h-139.5v340.6h141c23.7,0,43.7-2.7,60-8.1,16.3-5.4,29.5-12.7,39.4-21.9,10-9.2,17.1-20,21.5-32.2,4.4-12.3,6.5-25.1,6.5-38.4s-3.7-33.3-11.2-46.5c-7.4-13.3-20.3-24.5-38.7-33.8ZM545.1,76.2h43.9c16.8,0,28.5,2.5,35,7.4s9.8,12.8,9.8,23.6-2.8,17.9-8.4,23.1c-5.6,5.2-16.2,7.9-31.8,7.9h-48.6v-62h0ZM632.9,269.2c-6.9,6.8-19.8,10.2-38.8,10.2h-49v-74.4h51.8c17.4,0,29.5,3.1,36.2,9.3,6.7,6.2,10,15.2,10,26.9,0,11.8-3.4,21.2-10.2,28Z"/>
  <path class="st1" d="M69.9,390.4v76.7h-15.3v-76.7h15.3Z"/>
  <path class="st1" d="M156.7,390.4v76.7h-11.8l-41.5-48.2v48.2h-15.4v-76.7h11.4l42,49.5v-49.5h15.3Z"/>
  <path class="st1" d="M232.1,413.7h-15.2c-1-7.1-5.5-11.5-15.2-11.5s-14,3.3-14,9.6,4.1,7.9,11.4,9.4l9,1.8c15,3,23.6,8.8,23.6,21.4s-12,24-30,24-32.2-10.2-33.3-26.6h15.2c1.2,8,8.4,13,19,13s13.3-3,13.3-8.5-1.9-6.9-10.2-8.4l-12.4-2.4c-15.2-2.9-21.9-10.6-21.9-22.5s11.6-24.1,29.1-24.1c13,0,29.8,5.2,31.6,24.8Z"/>
  <path class="st1" d="M317.5,432.6c0,22.6-13.8,35.9-34.4,35.9s-34.3-13.3-34.3-35.9v-42.2h15.3v42.2c0,13.1,7.6,21.6,19,21.6s19.1-8.5,19.1-21.6v-42.2h15.3v42.2Z"/>
  <path class="st1" d="M362.1,442.7h-15.8v24.4h-15.3v-76.7h32.4c17.3,0,30,10.4,30,26.2s-5.9,19-15,23.1l20,27.4h-18.6l-17.7-24.4ZM346.3,428.5h16.5c8.5,0,15.5-4.6,15.5-12s-7-12-15.5-12h-16.5v24Z"/>
  <path class="st1" d="M462.3,451.8h-35.3l-6.3,15.3h-16.5l33.3-76.7h14.3l33.2,76.7h-16.4l-6.3-15.3ZM456.7,438.1l-12.1-29.3-12.1,29.3h24.2Z"/>
  <path class="st1" d="M564.5,390.4v76.7h-11.8l-41.5-48.2v48.2h-15.3v-76.7h11.4l42,49.5v-49.5h15.2Z"/>
  <path class="st1" d="M640.4,436.4h15.8c-3.5,19.5-18.1,32-37.6,32s-39.9-16.5-39.9-39.7,17.8-39.7,39.9-39.7,34.1,12.5,37.6,32h-15.8c-2.8-11.3-10.5-17.7-21.8-17.7s-24.4,10.3-24.4,25.4,10.4,25.4,24.4,25.4c11.3,0,18.9-6.4,21.8-17.7Z"/>
  <path class="st1" d="M684.2,404.6v17.6h36.6v14.2h-36.6v16.5h41.1v14.2h-56.4v-76.7h56.4v14.2h-41.1Z"/>
  <path class="st1" d="M849.3,451.8h-35.3l-6.3,15.3h-16.5l33.3-76.7h14.3l33.2,76.7h-16.4l-6.3-15.3ZM843.7,438.1l-12.1-29.3-12.1,29.3h24.2Z"/>
  <path class="st1" d="M955.4,424.5v42.7h-12l-1-11.1c-5.3,7.7-13.8,12.4-25.8,12.4-23.2,0-39.9-17.6-39.9-38.6s18.1-40.8,40.5-40.8,32.6,8.7,37.4,28.1h-16.6c-4.1-11.3-13.8-13.8-20.7-13.8-14.6,0-25.2,10.2-25.2,26.5s9.4,24.3,24.4,24.3,18.6-6.4,21.7-15.5h-22.8v-14.2h40Z"/>
  <path class="st1" d="M982.9,404.6v17.6h36.6v14.2h-36.6v16.5h41.1v14.2h-56.4v-76.7h56.4v14.2h-41.1Z"/>
  <path class="st1" d="M1108.3,390.4v76.7h-11.8l-41.5-48.2v48.2h-15.3v-76.7h11.4l42,49.5v-49.5h15.2Z"/>
  <path class="st1" d="M1182,436.4h15.8c-3.5,19.5-18.1,32-37.6,32s-39.9-16.5-39.9-39.7,17.8-39.7,39.9-39.7,34.1,12.5,37.6,32h-15.8c-2.8-11.3-10.5-17.7-21.8-17.7s-24.4,10.3-24.4,25.4,10.4,25.4,24.4,25.4c11.3,0,19-6.4,21.8-17.7Z"/>
  <path class="st1" d="M1276.9,390.4l-30.5,51.5v25.3h-15.6v-25.3l-30.6-51.5h17l21.2,36.2,21.3-36.2h17.2Z"/>
</svg>